{"title":"Enigma-AC3-5,1-DVDRip[Eng]2001","uid":4945710,"size":1489576759,"categoryP":"video","categoryS":"movies","magnet":"?xt=urn:btih:8cca4dcd26b14186ddab35f06aa1d3438aec677a&amp;dn=Enigma-AC3-5%2C1-DVDRip%5BEng%5D2001&amp;tr=udp%3A%2F%2Ftracker.openbittorrent.com%3A80&amp;tr=udp%3A%2F%2Fopen.demonii.com%3A1337&amp;tr=udp%3A%2F%2Ftracker.coppersurfer.tk%3A6969&amp;tr=udp%3A%2F%2Fexodus.desync.com%3A6969","seeders":1,"leechers":0,"uploader":"FatFreddy31","files":-1,"time":1244650741,"description":" &lt;a href=&quot;http://www.imdb.com/title/tt0157583/&quot; rel=&quot;nofollow&quot; target=&quot;_NEW&quot;&gt;http://www.imdb.com/title/tt0157583/&lt;/a&gt;\n &lt;a href=&quot;\nhttp://www.thefilmfactory.co.uk/enigma/&quot; rel=&quot;nofollow&quot; target=&quot;_NEW&quot;&gt;\nhttp://www.thefilmfactory.co.uk/enigma/&lt;/a&gt;\n\nUser Rating:6.4/10 - 9,106 votes\n\nDrama,Mystery,Romance,Thriller,War\n\nDirector:Michael Apted\n\nCast:Dougray Scott/Kate Winslet/Saffron Burrows/Jeremy Northam, and others.\n\nPlot:\nDuring the heart of World War II, in March of 1943, cryptoanalysts at Britain's code-breaking center have discovered to their horror that Nazi U-boats have changed their Enigma Code. Authorities enlist the help of a brilliant young man named Tom Jericho to help them break the code again. The possibility of a spy within the British code-breakers' ranks looms and Tom's love, Claire, has disappeared. To solve the mysteries, Tom recruits Claire's best friend, Hester Wallace. In investigating Claire's personal life, the pair discovers personal and \ninternational betrayals .....\n\nInfo:\n\nCovers included.\n\nGeneral\nFormat                           : AVI\nFormat/Info                      : Audio Video Interleave\nFile size                        : 1.39 GiB\nDuration                         : 1h 53mn\nOverall bit rate                 : 1 746 Kbps\nWriting application              : VirtualDubMod 1.5.4.1 (build 2178/release)\nWriting library                  : VirtualDubMod build 2178/release\n\nVideo\nFormat                           : MPEG-4 Visual\nFormat profile                   : Streaming Video@L1\nFormat settings, BVOP            : Yes\nFormat settings, QPel            : No\nFormat settings, GMC             : No warppoints\nFormat settings, Matrix          : Default\nMuxing mode                      : Packed bitstream\nCodec ID                         : XVID\nCodec ID/Hint                    : XviD\nDuration                         : 1h 53mn\nBit rate                         : 1 291 Kbps\nWidth                            : 720 pixels\nHeight                           : 416 pixels\nDisplay aspect ratio             : 16/9\nFrame rate                       : 25.000 fps\nResolution                       : 24 bits\nColorimetry                      : 4:2:0\nScan type                        : Progressive\nBits/(Pixel*Frame)               : 0.172\nStream size                      : 1.03 GiB (74%)\nWriting library                  : XviD 50\n\nAudio\nFormat                           : AC-3\nFormat/Info                      : Audio Coding 3\nCodec ID                         : 2000\nDuration                         : 1h 53mn\nBit rate mode                    : Constant\nBit rate                         : 448 Kbps\nChannel(s)                       : 6 channels\nChannel positions                : Front: L C R, Surround: L R, LFE\nSampling rate                    : 48.0 KHz\nStream size                      : 364 MiB (26%)\nAlignment                        : Split accross interleaves\nInterleave, duration             : 80 ms (2.00 video frames)\nInterleave, preload duration     : 500 ms\nLanguage                         : English\n\nEnjoy....","torrent":{"xt":"urn:btih:8cca4dcd26b14186ddab35f06aa1d3438aec677a","amp;dn":"Enigma-AC3-5%2C1-DVDRip%5BEng%5D2001","amp;tr":["udp%3A%2F%2Ftracker.openbittorrent.com%3A80","udp%3A%2F%2Fopen.demonii.com%3A1337","udp%3A%2F%2Ftracker.coppersurfer.tk%3A6969","udp%3A%2F%2Fexodus.desync.com%3A6969"],"infoHash":"8cca4dcd26b14186ddab35f06aa1d3438aec677a","infoHashBuffer":{"type":"Buffer","data":[140,202,77,205,38,177,65,134,221,171,53,240,106,161,211,67,138,236,103,122]},"announce":[],"urlList":[]}}